Coordinates
version=1
nRows=14
nColumns=36
inDegrees=yes

Units are S.I. units (second, meters, Newtons, ...)
If the header above contains a line with 'inDegrees', this indicates whether rotational values are in degrees (yes) or radians (no).

endheader
time	pelvis_tilt	pelvis_list	pelvis_rotation	pelvis_tx	pelvis_ty	pelvis_tz	hip_flexion_r	hip_adduction_r	hip_rotation_r	knee_angle_r	knee_angle_r_beta	ankle_angle_r	subtalar_angle_r	mtp_angle_r	hip_flexion_l	hip_adduction_l	hip_rotation_l	knee_angle_l	knee_angle_l_beta	ankle_angle_l	subtalar_angle_l	mtp_angle_l	lumbar_extension	lumbar_bending	lumbar_rotation	arm_flex_r	arm_add_r	arm_rot_r	elbow_flex_r	pro_sup_r	arm_flex_l	arm_add_l	arm_rot_l	elbow_flex_l	pro_sup_l
      0.00000000	     10.21331023	      3.58280692	     15.07632365	     -0.98167899	      1.24894169	     -0.10912903	     -4.50203383	      0.14941200	     -3.73786131	     27.57229960	      0.48122741	     10.66914427	    -25.51806687	     -5.98433954	      3.79268669	      1.77939643	      9.17487516	     31.43647636	      0.54867002	     15.77003603	     -7.93791870	     -5.98433954	    -21.41780803	      2.64704022	      6.45892820	     18.71389550	    -11.01565498	     22.88085263	     21.70811931	     75.88103779	      9.65832299	     -6.43802448	     24.30402639	     16.07718260	     60.93578278
      0.00416670	     10.09057474	      3.67796128	     14.67082294	     -0.98200392	      1.24878056	     -0.11051334	     -2.60778452	      0.07443791	     -3.25412014	     30.65421771	      0.53501703	     15.58954026	    -26.13139979	     -6.19787177	      4.65255305	      3.08777363	     10.77200007	     32.83443964	      0.57306908	     17.54353440	     -5.94294059	     -6.19787177	    -21.18797568	      2.97858197	      6.27439264	     19.32293720	    -10.74935304	     19.63466918	     21.57623607	     77.51307951	      9.65453910	     -6.28266897	     22.92029856	     15.23303621	     60.61226280
      0.00833330	      9.43142879	      3.66734555	     14.63460501	     -0.98135858	      1.24900341	     -0.11215281	     -2.07358424	     -0.49943033	     -4.47844057	     30.50657307	      0.53244014	     16.14517523	    -26.72254749	     -6.29573390	      5.21861831	      3.49819659	     11.41059934	     32.72822039	      0.57121520	     18.35175022	     -4.96955112	     -6.29573390	    -20.13928285	      2.76476766	      6.36214391	     19.16328083	    -10.10020248	     18.43855869	     21.28802961	     77.37211791	      9.68578778	     -5.97697603	     22.29337048	     14.27075350	     60.36439405
      0.01250000	      9.59953611	      3.95346248	     14.83138629	     -0.98403982	      1.24906218	     -0.10980708	     -1.82612937	     -0.84810885	     -4.80233339	     31.33891047	      0.54696717	     17.75206297	    -25.25042210	     -6.88443665	      4.92779122	      3.93497605	     12.47915305	     32.74018568	      0.57142404	     18.93085189	     -4.85292611	     -6.88443665	    -20.92107378	      2.46831510	      6.73655523	     18.83373048	     -9.53007258	     10.90457894	     22.13780065	     86.33326357	     10.42981910	     -5.83245590	     18.37649794	     13.81484947	     61.04741848
      0.01666670	      9.72552648	      3.94141132	     15.04716750	     -0.98232240	      1.24607454	     -0.11126479	     -1.87870758	     -0.97852087	     -5.65360560	     31.68483119	      0.55300463	     18.12499718	    -24.81855304	     -6.96163771	      4.99800894	      3.93023763	     12.91168687	     33.30435030	      0.58127057	     19.25651917	     -4.72042804	     -6.96163771	    -21.15467882	      2.73950429	      6.87970830	     18.89468594	     -9.66056808	     10.26372763	     22.21002862	     84.52391693	     10.71336423	     -5.73521252	     17.28753338	     13.11786258	     60.59358398
      0.02083330	      9.59912428	      3.89497637	     14.94182281	     -0.98251205	      1.24540657	     -0.11110627	     -1.34764169	     -1.06208634	     -5.85019570	     32.20528359	      0.56208824	     19.14000545	    -23.57949738	     -7.07740070	      5.39051695	      4.07240076	     13.29077699	     33.73276285	      0.58874778	     19.55834850	     -5.25053778	     -7.07740070	    -21.42291341	      2.76623383	      7.11174416	     18.99094647	     -9.79258425	      9.05587239	     22.71867603	     83.63884511	     10.87169705	     -5.45209522	     13.30020224	     12.61854358	     59.73027586
      0.02500000	      9.51347287	      3.77712379	     14.84214398	     -0.98364719	      1.24526676	     -0.10999292	     -0.93004279	     -1.06694830	     -6.10598288	     32.56045969	      0.56828723	     19.41881021	    -23.00080578	     -7.24120829	      5.80873252	      3.99252293	     13.35250744	     34.18909936	      0.59671235	     19.40821551	     -5.61770760	     -7.24120829	    -21.43123622	      2.91187312	      7.47349673	     19.18087007	    -10.11558415	      9.33728796	     22.76136120	     79.52411538	     11.03035353	     -5.28328881	     11.41659544	     11.90961595	     59.52088591
      0.02916670	      9.19389762	      3.52862762	     14.55305467	     -0.98425599	      1.24251233	     -0.10897211	     -0.07714310	     -1.00845783	     -6.15390542	     33.21488899	      0.57970917	     19.65922054	    -22.77468588	     -7.26018202	      6.61233567	      3.93043996	     13.28753904	     34.85462781	      0.60832801	     19.68614495	     -5.53211965	     -7.26018202	    -21.46239913	      3.01438913	      7.64123494	     19.52636520	    -10.34505086	      9.30234017	     23.13367649	     79.07415279	     10.84325078	     -5.43173064	     10.82504104	     11.61611179	     59.43401419
      0.03333330	      8.95244742	      3.42679338	     14.54546077	     -0.98510337	      1.24661038	     -0.11007957	      0.33817260	     -1.05992139	     -6.36269586	     33.27275022	      0.58071904	     19.80479060	    -22.15886850	     -7.26746319	      7.00779200	      3.95142006	     13.44865036	     35.01521132	      0.61113073	     19.28650271	     -6.04204730	     -7.26746319	    -21.35847385	      3.05934368	      7.67084873	     19.69893975	    -10.50757695	      9.35213759	     23.20816040	     79.48241549	     10.91580603	     -5.42532205	      9.79371144	     10.89926957	     59.33369331
      0.03750000	      8.76225190	      3.23967580	     14.45072653	     -0.98669325	      1.24197731	     -0.10895140	      0.84715030	     -0.96004503	     -6.34217782	     33.55698984	      0.58567996	     19.93724302	    -22.22910966	     -7.39783082	      7.60040525	      3.83530579	     13.38915066	     35.51764571	      0.61989986	     19.45789009	     -6.04493568	     -7.39783082	    -21.40612527	      3.19807094	      7.71499794	     20.01949356	    -10.57415027	      8.30035262	     23.41499975	     82.64833497	     10.72869185	     -5.29547014	      5.00517020	     10.94907233	     62.62961274
      0.04166670	      8.45272938	      3.07619701	     14.36891948	     -0.98564177	      1.24105203	     -0.10923589	      1.51755858	     -0.92529796	     -6.18496033	     33.94050298	      0.59237353	     20.07644535	    -22.41792455	     -7.40433328	      8.30039520	      3.75041354	     13.31456400	     36.04327181	      0.62907377	     19.65364213	     -6.00585551	     -7.40433328	    -21.08559136	      3.27765664	      7.85058520	     20.03983911	    -10.75024362	      8.19208980	     23.64784814	     81.47698475	     10.64807506	     -5.36425951	      4.66201207	     10.62162199	     62.36093130
      0.04583330	      8.12869713	      2.87045778	     14.13256647	     -0.98439671	      1.24365085	     -0.10919920	      1.87308210	     -0.86302917	     -6.22771016	     33.90922354	      0.59182760	     20.03830099	    -22.56817049	     -7.41237992	      8.58558138	      3.53267052	     13.06906689	     36.01080503	      0.62850711	     19.55172551	     -5.90874473	     -7.41237992	    -20.79737561	      3.28035322	      7.93476930	     20.10854015	    -10.81301898	      8.14169664	     24.03587571	     80.51178884	     10.27286699	     -5.48682853	      4.34305937	     10.25042211	     62.13303509
      0.05000000	      8.16926091	      2.86423960	     13.89030922	     -0.98381956	      1.23883450	     -0.11000437	      2.01824709	     -0.89806833	     -5.97964403	     34.34633558	      0.59945664	     20.69750891	    -22.05598834	     -7.42444064	      8.52998806	      3.47436720	     12.78515746	     36.12358631	      0.63047552	     19.93412270	     -5.94806864	     -7.42444064	    -20.88255212	      3.25546528	      7.86905568	     20.46664774	    -10.89363840	      8.52847447	     24.05728658	     80.40904754	      9.99857750	     -5.52768605	      2.59517462	     10.09402915	     61.91642056
      0.05416670	      8.13228620	      2.75933497	     13.64385129	     -0.98396377	      1.23998252	     -0.10929001	      2.13570203	     -0.85063813	     -5.83391288	     34.45857283	      0.60141555	     20.98866338	    -21.69791114	     -7.42982838	      8.60079660	      3.36587511	     12.57521570	     36.21308607	      0.63203758	     20.13607276	     -5.71070288	     -7.42982838	    -20.84224556	      3.27273660	      7.83681766	     20.62488068	    -10.89508446	      8.35520409	     24.35027279	     80.09710434	      9.69604975	     -5.62950815	      2.14827153	      9.92682218	     61.76949430
